<?xml version="1.0" standalone="no"?>
<!DOCTYPE svg PUBLIC "-//W3C//DTD SVG 20010904//EN"
 "http://www.w3.org/TR/2001/REC-SVG-20010904/DTD/svg10.dtd">
<svg version="1.0" xmlns="http://www.w3.org/2000/svg"
 width="1110.000000pt" height="1110.000000pt" viewBox="0 0 1110.000000 1110.000000"
 preserveAspectRatio="xMidYMid meet">
<metadata>
Created by potrace 1.11, written by Peter Selinger 2001-2013
</metadata>
<g transform="translate(0.000000,1110.000000) scale(0.100000,-0.100000)"
fill="#000000" stroke="none">
<path d="M5234 8643 c17 -54 109 -428 131 -533 2 -8 9 -37 15 -65 6 -27 13
-57 15 -65 9 -38 86 -408 91 -435 3 -16 9 -48 14 -70 5 -22 11 -53 14 -70 3
-16 17 -91 31 -165 14 -74 37 -200 51 -280 14 -80 27 -156 29 -170 13 -74 67
-400 71 -430 2 -19 6 -46 8 -60 2 -14 12 -79 21 -145 10 -66 19 -129 21 -140
1 -11 5 -40 8 -65 4 -25 8 -56 11 -70 2 -14 7 -50 10 -80 3 -30 8 -68 10 -85
7 -45 34 -271 40 -340 4 -33 8 -71 10 -85 7 -45 18 -147 30 -290 4 -41 8 -86
10 -100 2 -14 7 -56 10 -95 3 -38 8 -88 10 -110 3 -34 9 -103 20 -230 1 -16 6
-76 10 -131 l7 -102 -28 -5 c-16 -3 -49 -9 -74 -12 -25 -4 -56 -8 -70 -10 -14
-2 -56 -7 -95 -11 -38 -3 -77 -8 -85 -9 -14 -3 -123 -10 -290 -20 -178 -11
-643 -5 -815 10 -27 2 -81 7 -120 10 -38 3 -81 8 -95 10 -14 2 -54 7 -90 10
-36 4 -74 9 -85 11 -10 2 -37 6 -60 9 -61 9 -217 34 -245 40 -14 3 -41 8 -60
11 -19 3 -96 20 -170 36 -74 16 -143 31 -153 33 -10 2 -27 7 -37 10 -10 3 -27
8 -37 10 -56 12 -182 47 -327 92 -43 13 -80 22 -81 21 -2 -2 9 -30 25 -63 77
-164 152 -368 195 -530 27 -101 31 -116 41 -170 3 -16 9 -48 14 -70 31 -138
57 -369 65 -565 2 -63 5 -236 6 -384 l1 -268 91 6 c51 4 106 8 122 10 17 2 62
7 100 11 111 10 223 23 275 30 14 2 45 6 70 10 25 3 56 8 70 10 14 2 45 7 70
10 71 10 193 30 355 60 178 33 463 100 625 147 58 16 112 31 120 33 71 14 548
187 675 245 507 229 856 444 1230 755 128 106 370 344 469 460 38 44 79 92 92
107 90 104 299 402 379 542 l28 48 -29 -15 c-50 -26 -305 -147 -309 -147 -3 0
-30 -12 -62 -27 -63 -28 -247 -102 -250 -99 -10 9 -18 1123 -9 1346 6 136 17
375 21 419 2 22 6 82 10 133 3 51 8 109 10 128 2 19 7 69 10 110 6 74 12 142
20 210 2 19 7 64 10 100 4 36 8 72 10 80 2 9 6 46 9 82 4 37 9 75 11 86 2 10
6 43 9 73 3 30 8 63 10 74 2 11 7 45 10 76 4 31 8 66 10 76 3 11 7 44 11 73 4
29 8 60 10 69 3 16 14 86 20 131 3 21 17 107 40 245 l5 30 -187 1 c-169 0
-419 11 -433 19 -3 1 -39 6 -79 9 -41 4 -77 9 -80 11 -4 2 -28 6 -56 9 -27 3
-63 8 -80 11 -358 67 -792 191 -1260 361 -82 30 -160 59 -173 64 -31 13 -34
13 -28 -7z"/>
<path d="M8949 7965 c-2 -46 -17 -137 -40 -255 -109 -554 -306 -1184 -474
-1521 l-23 -46 67 -2 c36 -1 82 -4 101 -5 74 -7 165 -18 170 -21 3 -2 29 -6
59 -10 137 -17 450 -122 596 -199 98 -52 256 -155 310 -201 57 -50 145 -138
145 -145 0 -12 -147 -160 -210 -212 -165 -136 -488 -304 -680 -354 -8 -2 -33
-8 -55 -14 -163 -42 -250 -54 -402 -55 -71 0 -109 -4 -105 -10 3 -5 26 -41 51
-80 133 -206 292 -676 364 -1075 9 -50 27 -145 31 -166 2 -12 7 -45 11 -74 4
-29 8 -61 10 -70 7 -39 25 -208 30 -283 2 -32 5 -60 8 -63 2 -2 37 48 77 113
80 128 273 420 363 548 31 44 80 114 109 155 63 90 338 463 347 470 3 3 28 34
56 70 47 62 263 329 275 340 5 4 87 101 132 155 85 102 284 318 463 503 66 68
121 127 122 130 3 7 -15 27 -172 197 -49 54 -97 106 -105 115 -8 9 -62 68
-120 130 -175 188 -261 283 -441 491 -212 243 -487 594 -686 876 -95 134 -303
448 -303 457 0 3 -18 34 -40 68 -27 43 -40 57 -41 43z"/>
<path d="M2129 7950 c-221 -357 -324 -509 -539 -795 -186 -246 -527 -663 -652
-796 -7 -8 -53 -59 -103 -114 -87 -97 -137 -151 -206 -226 -19 -20 -52 -56
-74 -80 -22 -24 -83 -91 -136 -149 -53 -58 -115 -125 -138 -150 -23 -25 -40
-48 -39 -51 2 -4 64 -70 138 -147 209 -216 381 -407 550 -607 46 -55 86 -102
90 -105 4 -4 101 -124 140 -174 8 -10 27 -33 41 -50 71 -87 392 -517 459 -616
8 -12 33 -47 56 -78 67 -94 283 -417 378 -567 49 -77 92 -144 96 -148 4 -4 7
14 8 40 3 63 12 192 17 223 2 14 7 50 10 80 3 30 17 116 30 190 30 169 32 178
60 300 2 8 10 44 18 80 75 334 214 695 333 863 19 26 34 48 34 50 0 1 -51 2
-113 2 -125 1 -176 6 -290 30 -379 79 -750 275 -980 519 -87 92 -87 84 -3 163
158 151 348 267 586 358 223 85 496 141 722 147 l66 2 -33 65 c-44 89 -112
256 -175 430 -57 162 -178 568 -204 691 -3 14 -19 84 -36 155 -36 155 -38 163
-51 239 -5 33 -12 62 -14 65 -2 4 -6 31 -10 61 -3 30 -9 71 -13 90 l-8 35 -15
-25z"/>
</g>
</svg>
